<svg width="40" height="40" viewBox="0 0 40 40" fill="none" xmlns="http://www.w3.org/2000/svg">
<path d="M39.6501 17.3774C39.5083 17.0822 39.3321 16.8049 39.1251 16.5513L38.5584 15.8537C37.0584 14.0178 35.5584 12.1653 34.0301 10.3327C33.2701 9.42149 32.5001 8.51024 31.7068 7.62068C30.9134 6.73113 30.1218 5.84157 29.3201 4.96202C28.5184 4.08248 27.7034 3.21464 26.8368 2.37849C26.4084 1.95958 25.9584 1.55233 25.4884 1.1668C25.2534 0.973203 25.0168 0.781273 24.7718 0.60937C24.6534 0.524253 24.5151 0.442488 24.3868 0.352364C24.3145 0.304932 24.2393 0.26202 24.1618 0.223861C24.0835 0.18232 24.0007 0.149846 23.9151 0.127063C23.6017 0.0384577 23.2773 -0.00483562 22.9518 -0.00146532C22.6393 -0.000228297 22.3276 0.0282685 22.0201 0.0836686C21.4158 0.200244 20.8293 0.394916 20.2751 0.662798C19.2051 1.18852 18.1551 1.75597 17.1168 2.33176C15.0396 3.50148 13.0404 4.80489 11.1318 6.23379C9.2183 7.66421 7.43116 9.25668 5.7901 10.9936C4.14177 12.731 2.64342 14.5736 1.16508 16.4495C0.787435 16.9378 0.484151 17.4794 0.265094 18.0567C0.153064 18.3542 0.0742399 18.6631 0.0300833 18.978C-0.0200388 19.3114 -0.00532289 19.6515 0.0734183 19.9793C0.0969279 20.0633 0.125326 20.1458 0.158435 20.2264C0.171676 20.2678 0.189565 20.3075 0.211765 20.3449L0.265094 20.4417L0.468417 20.8389C0.606751 21.1076 0.746751 21.3746 0.885084 21.6316C1.16342 22.1573 1.45176 22.6831 1.75176 23.1971C2.94009 25.2666 4.25176 27.271 5.63843 29.2054C7.02509 31.1397 8.47177 33.0323 9.95343 34.8982C10.6918 35.8312 11.4301 36.7641 12.1801 37.6854L12.7468 38.383C12.8434 38.5015 12.9401 38.6183 13.0468 38.7368C13.153 38.8593 13.2677 38.9742 13.3901 39.0806C13.6329 39.309 13.9027 39.5069 14.1934 39.6698C14.3483 39.7504 14.5093 39.8185 14.6751 39.8734C14.8464 39.9254 15.0221 39.9612 15.2001 39.9802C15.8854 40.0417 16.5722 39.8801 17.1584 39.5196C17.3028 39.4306 17.4424 39.3342 17.5767 39.2308L17.7701 39.0639L17.9368 38.9137L18.5901 38.3029C19.4568 37.4884 20.3251 36.694 21.2018 35.8912C22.9573 34.2935 24.7351 32.7246 26.5351 31.1848C30.1318 28.0972 33.8151 25.0964 37.5834 22.2341L38.2901 21.6984L38.6434 21.4297C38.7759 21.3313 38.9012 21.2237 39.0184 21.1076C39.5194 20.6418 39.8543 20.0245 39.9718 19.3501C40.0667 18.6751 39.9545 17.9872 39.6501 17.3774ZM24.5868 8.4151L27.4884 20.7855C27.5561 21.1404 27.4895 21.5078 27.3016 21.8163C27.1137 22.1248 26.8179 22.3523 26.4718 22.4544L12.8968 26.9356C12.6969 26.99 12.4876 27.0007 12.2833 26.9669C12.0789 26.9331 11.8842 26.8556 11.7125 26.7397C11.5407 26.6237 11.3959 26.4721 11.2879 26.2951C11.18 26.1181 11.1113 25.9199 11.0868 25.7139L9.05342 13.5305C9.02314 13.2083 9.10159 12.8852 9.27622 12.6129C9.45085 12.3407 9.71158 12.1349 10.0168 12.0284L22.7451 7.36533C22.9348 7.30435 23.1351 7.28351 23.3332 7.30411C23.5314 7.32471 23.7231 7.3863 23.8963 7.485C24.0694 7.58369 24.2202 7.71732 24.3391 7.87743C24.4579 8.03755 24.5423 8.22064 24.5868 8.4151ZM33.3218 19.2851C33.2591 18.9734 33.1583 18.6708 33.0218 18.3838C32.9568 18.2453 25.7101 6.3773 25.5384 6.09859C25.7851 6.29219 31.5118 14.7922 33.5134 17.6979C34.0004 18.3127 34.248 19.0837 34.2101 19.8675C34.1788 20.3203 34.0103 20.7527 33.7271 21.107C33.4438 21.4613 33.0594 21.7206 32.6251 21.8502C32.8097 21.6443 32.9645 21.4134 33.0851 21.1643C33.3577 20.5785 33.441 19.9222 33.3234 19.2867L33.3218 19.2851ZM31.5668 19.5104C31.5041 19.1988 31.4034 18.8961 31.2668 18.6091C31.2451 18.5557 30.4418 16.9268 29.3618 14.9107C27.4984 11.4259 26.0284 8.70383 25.8284 8.37171C26.0318 8.68214 27.4951 10.795 29.6501 14.2999C30.5168 15.7151 32.1501 18.5774 32.2618 18.8561C32.4281 19.2482 32.4945 19.6754 32.4551 20.0995C32.4238 20.5523 32.2553 20.9846 31.972 21.3389C31.6888 21.6932 31.3044 21.9526 30.8701 22.0822C31.0547 21.8763 31.2095 21.6453 31.3301 21.3963C31.6052 20.8082 31.688 20.1483 31.5668 19.5104ZM29.9001 19.7457C29.7818 19.1782 26.1751 11.0304 26.0568 10.7333C26.2601 11.0437 29.8684 17.7663 30.0934 18.1619C30.5288 18.803 30.7702 19.5564 30.7884 20.3315C30.7571 20.7842 30.5886 21.2166 30.3054 21.5709C30.0222 21.9252 29.6377 22.1845 29.2034 22.3142C29.388 22.1082 29.5429 21.8773 29.6634 21.6283C29.9442 21.0438 30.0301 20.3844 29.9084 19.7474L29.9001 19.7457ZM28.2618 19.9126C28.2301 19.7624 27.8234 18.3688 27.3951 16.9218C26.9234 15.3246 26.4201 13.674 26.3668 13.5839C26.4951 13.7775 27.9401 16.9385 28.4551 18.3221C28.795 19.0061 29.0298 19.7375 29.1518 20.4917C29.1205 20.9445 28.9519 21.3769 28.6687 21.7311C28.3855 22.0854 28.0011 22.3448 27.5668 22.4745C27.8746 22.1316 28.0979 21.7212 28.2189 21.2764C28.3399 20.8315 28.3551 20.3644 28.2634 19.9126H28.2618ZM34.6534 20.9524C34.9361 20.3666 35.0226 19.7053 34.9001 19.0664C34.8375 18.7548 34.7367 18.4521 34.6001 18.1652C34.5322 18.0237 34.4537 17.8875 34.3651 17.758C34.3218 17.6829 31.5068 13.4587 29.0318 9.79367C27.1484 7.00651 25.4568 4.54145 25.3651 4.42295C25.6118 4.61655 26.6284 5.88162 27.2284 6.63099C29.4551 9.41815 35.0868 17.4692 35.0868 17.4692C35.3471 17.7625 35.5436 18.1069 35.6635 18.4805C35.7835 18.8541 35.8243 19.2486 35.7834 19.6389C35.7521 20.0916 35.5836 20.524 35.3004 20.8783C35.0172 21.2326 34.6327 21.4919 34.1984 21.6216C34.3812 21.422 34.537 21.1993 34.6618 20.959L34.6534 20.9524ZM4.48677 17.2005C4.87529 18.2726 5.34786 19.3123 5.90009 20.3098C7.35676 23.2689 9.51842 27.4379 10.4001 29.1319C9.90008 28.3175 7.16675 23.9214 5.40008 20.6636C4.92118 19.7864 4.48892 18.8845 4.1051 17.9616C3.98927 17.6998 3.91719 17.4207 3.89175 17.1354C3.84671 16.635 3.93607 16.1316 4.15057 15.6774C4.36507 15.2231 4.69693 14.8346 5.11177 14.5519C4.80595 14.9134 4.59037 15.3426 4.48285 15.804C4.37534 16.2654 4.37897 16.7458 4.49343 17.2055L4.48677 17.2005ZM5.77176 16.4929C5.86421 16.8874 5.98565 17.2746 6.1351 17.6512C6.30177 18.0801 6.71344 18.8194 7.12011 19.709C8.24344 22.174 9.82843 25.6805 9.98843 26.001C9.71009 25.5286 5.80177 18.7109 5.42844 17.5861C5.2946 17.2128 5.21161 16.8232 5.18176 16.4278C5.13671 15.9274 5.22607 15.424 5.44057 14.9697C5.65507 14.5155 5.98693 14.1269 6.40177 13.8442C6.09249 14.2039 5.87386 14.6325 5.76424 15.0943C5.65461 15.556 5.6572 16.0374 5.77176 16.4979V16.4929ZM7.07842 15.7752C7.1825 16.1807 7.31506 16.5784 7.4751 16.9652C8.0751 18.6058 9.6051 23.1621 9.70177 23.4508C9.55177 23.1287 7.12175 17.9949 6.73675 16.8684C6.60297 16.4952 6.52001 16.1056 6.4901 15.7101C6.44505 15.2097 6.53441 14.7063 6.74891 14.2521C6.96341 13.7978 7.29525 13.4093 7.71009 13.1266C7.40401 13.488 7.18769 13.9169 7.07878 14.3781C6.96987 14.8393 6.97146 15.3198 7.08343 15.7802L7.07842 15.7752ZM8.3951 15.0142C8.42677 15.2178 9.1651 19.3668 9.19843 19.5488C9.1551 19.4086 8.50176 17.3624 8.11676 16.2359C7.96686 15.8276 7.86616 15.4029 7.81677 14.9708C7.77173 14.4704 7.86106 13.967 8.07556 13.5127C8.29006 13.0585 8.62192 12.6699 9.03676 12.3872C8.72668 12.7424 8.50687 13.1674 8.39602 13.6259C8.28517 14.0844 8.28656 14.563 8.40009 15.0209L8.3951 15.0142ZM21.3951 6.94142C21.1268 7.04823 16.0318 8.87075 15.9251 8.91414C17.8638 7.95279 19.8547 7.10083 21.8884 6.36229C22.2148 6.27064 22.5501 6.21467 22.8884 6.19538C23.1479 6.19555 23.4033 6.25903 23.6327 6.38029C23.8622 6.50156 24.0586 6.67697 24.2051 6.89135C23.292 6.57585 22.2968 6.59538 21.3968 6.94644L21.3951 6.94142ZM21.3851 5.81655C21.2668 5.85994 19.6934 6.48412 17.9701 7.32861C15.7534 8.43346 13.2601 9.83206 12.9068 10.009C13.3451 9.69854 17.1351 7.44712 19.6934 6.15033C20.3975 5.78376 21.1319 5.47887 21.8884 5.23907C22.2148 5.14745 22.5501 5.0915 22.8884 5.07219C23.148 5.07255 23.4036 5.13625 23.633 5.25782C23.8624 5.37938 24.0588 5.55512 24.2051 5.76982C23.289 5.45355 22.2907 5.47186 21.3868 5.82154L21.3851 5.81655ZM24.1901 4.71169C23.2751 4.39866 22.28 4.414 21.3751 4.75508C21.0001 4.89528 20.0684 5.31251 19.8234 5.42266C17.9068 6.34393 15.7551 7.54558 13.8818 8.66045C12.8651 9.26127 10.7984 10.5898 10.2151 10.9753C10.7718 10.5247 13.0734 8.93916 13.7584 8.49856C15.0651 7.65239 16.0601 7.06158 17.3868 6.3289C18.8092 5.45836 20.3171 4.73636 21.8868 4.17427C22.2131 4.08264 22.5484 4.02669 22.8868 4.00739C23.1462 4.00756 23.4016 4.07101 23.6311 4.19228C23.8605 4.31354 24.0569 4.48895 24.2034 4.70334L24.1901 4.71169ZM21.3568 3.76872C21.0884 3.87554 20.0501 4.32615 19.8051 4.4363C16.8086 5.93839 13.9342 7.67332 11.2084 9.62511C10.3084 10.2677 9.00342 11.2223 8.42509 11.6412C8.98176 11.1906 10.5134 9.97226 11.4434 9.25127C13.3253 7.81297 15.3032 6.50534 17.3634 5.33755C18.7777 4.45209 20.2873 3.72931 21.8634 3.18292C22.1898 3.09127 22.5251 3.0353 22.8634 3.01601C23.123 3.01637 23.3786 3.0801 23.608 3.20166C23.8374 3.32322 24.0338 3.49894 24.1801 3.71364C23.2605 3.39801 22.2588 3.41931 21.3534 3.77374L21.3568 3.76872ZM21.3468 2.83576C21.0784 2.94258 20.0401 3.39321 19.7951 3.50336C17.6961 4.53841 15.6747 5.72423 13.7468 7.05156C11.6384 8.48854 7.74677 11.6295 7.1951 12.0801C7.7301 11.5661 7.88011 11.4476 8.75844 10.6649C9.63678 9.88213 10.5568 9.15281 11.4984 8.42514C13.3624 6.9649 15.3187 5.62693 17.3551 4.41962C18.7683 3.53218 20.2781 2.80928 21.8551 2.26499C22.1814 2.17334 22.5167 2.11739 22.8551 2.09811C23.1145 2.09827 23.37 2.16173 23.5994 2.28299C23.8288 2.40426 24.0253 2.57966 24.1718 2.79405C23.2555 2.46107 22.2491 2.47651 21.3434 2.83744L21.3468 2.83576ZM21.3368 1.93454C21.0684 2.04135 20.0301 2.49196 19.7851 2.60211C17.7843 3.59973 15.8592 4.74271 14.0251 6.02183C12.7301 6.91139 10.0534 8.79897 8.64008 9.99896C8.21175 10.3628 6.37009 12.0568 5.85675 12.5608C6.35675 12.0034 7.8701 10.558 8.74677 9.76362C9.62344 8.9692 10.5351 8.21984 11.4668 7.50219C13.3344 6.04779 15.294 4.71597 17.3334 3.51505C18.7466 2.62761 20.2564 1.90472 21.8334 1.36042C22.1597 1.26877 22.4951 1.2128 22.8334 1.19352C23.093 1.19387 23.3486 1.25758 23.578 1.37914C23.8074 1.5007 24.0038 1.67645 24.1501 1.89114C23.2362 1.56525 22.2352 1.58304 21.3334 1.94121L21.3368 1.93454ZM6.18843 11.3675C7.01343 10.5213 7.85511 9.69854 8.73677 8.91246C9.61844 8.12638 10.5251 7.36868 11.4568 6.65103C13.3261 5.19906 15.2856 3.86732 17.3234 2.66387C18.7366 1.7764 20.2464 1.0535 21.8234 0.509236C22.1498 0.417573 22.4851 0.361629 22.8234 0.342356C23.083 0.34271 23.3386 0.406419 23.568 0.52798C23.7974 0.64954 23.9938 0.825286 24.1401 1.03998C23.2268 0.716438 22.228 0.731837 21.3251 1.08337C21.0568 1.19019 20.0184 1.6408 19.7734 1.75095C17.7749 2.75262 15.85 3.89539 14.0134 5.17064C13.0923 5.80262 12.1823 6.44574 11.2834 7.09997C10.3834 7.75421 9.4951 8.43515 8.63843 9.16949C8.2101 9.53333 5.14844 12.4924 4.63844 13.0281C5.14677 12.4674 5.6601 11.9099 6.1851 11.3742L6.18843 11.3675ZM3.91843 15.2262C3.61108 15.5859 3.39351 16.0137 3.28369 16.4742C3.17386 16.9347 3.17493 17.4148 3.28677 17.8748C3.69414 18.9654 4.19953 20.0167 4.79675 21.0158C6.63008 24.4455 9.60343 29.5709 10.6534 31.2966C10.4718 31.0179 5.68675 23.6744 4.49842 21.67C3.65308 20.5137 3.04214 19.2028 2.70009 17.8114C2.66073 17.3131 2.75214 16.8131 2.96526 16.3611C3.17839 15.9091 3.50584 15.5207 3.9151 15.2345L3.91843 15.2262ZM2.78343 15.8587C2.46025 16.2136 2.23111 16.644 2.11698 17.1105C2.00284 17.577 2.00736 18.0647 2.1301 18.529C3.1625 20.8425 4.36873 23.0742 5.73842 25.2049C7.48342 28.0988 8.67176 30.0832 10.5984 32.7152C9.94509 31.8256 8.38175 29.6927 7.29009 28.1906C5.90842 26.2713 4.60343 24.2986 3.39343 22.2625C2.53953 21.1141 1.91687 19.8104 1.56011 18.4239C1.52312 17.929 1.61538 17.4331 1.82782 16.9848C2.04027 16.5365 2.36557 16.1513 2.77176 15.867L2.78343 15.8587ZM6.24176 28.7765C4.86009 26.8571 3.5551 24.8844 2.3451 22.8483C1.49116 21.6999 0.868476 20.3962 0.511752 19.0097C0.466709 18.5092 0.556067 18.0058 0.770567 17.5516C0.985067 17.0974 1.31693 16.7088 1.73177 16.4261C1.40859 16.781 1.17945 17.2114 1.06532 17.6779C0.951179 18.1445 0.955695 18.6322 1.07844 19.0965C2.11078 21.41 3.31702 23.6417 4.68676 25.7723C6.52009 28.8065 9.00177 32.2579 11.1001 35.0985C10.7718 34.7013 7.56509 30.6073 6.23843 28.7848L6.24176 28.7765ZM13.4468 27.7267C13.8968 27.6415 15.2234 27.029 16.5834 26.4833C18.2634 25.8157 19.9984 25.1865 20.1384 25.1331C20.0101 25.2082 18.4368 26.0978 16.9584 26.9339C15.6734 27.6632 14.4584 28.3592 14.3134 28.436C14.0209 28.5959 13.6964 28.6886 13.3636 28.7073C13.0308 28.726 12.698 28.6701 12.3895 28.5439C12.081 28.4176 11.8044 28.2241 11.5799 27.9773C11.3554 27.7306 11.1887 27.4369 11.0918 27.1175C11.4196 27.3762 11.7972 27.5645 12.201 27.6704C12.6048 27.7764 13.026 27.7978 13.4384 27.7334L13.4468 27.7267ZM13.8101 29.4841C14.0391 29.441 14.2627 29.3727 14.4768 29.2805C15.2051 28.9467 16.3717 28.2941 17.6234 27.6115C20.0851 26.2763 22.8368 24.7275 22.9768 24.6524C22.8484 24.7709 20.3434 26.5601 18.1051 28.0504C16.3918 29.187 14.8084 30.1199 14.6801 30.1834C14.2992 30.3981 13.8621 30.4918 13.4268 30.4521C12.978 30.4139 12.5508 30.2424 12.1998 29.9596C11.8489 29.6769 11.5901 29.2957 11.4568 28.8649C11.7816 29.1304 12.1592 29.3236 12.5643 29.4318C12.9695 29.54 13.393 29.5607 13.8068 29.4924L13.8101 29.4841ZM11.8184 30.5672C12.1431 30.8272 12.5181 31.0168 12.9198 31.124C13.3215 31.2311 13.741 31.2535 14.1518 31.1898C14.4448 31.1574 14.7283 31.066 14.9851 30.921C17.6084 29.3873 25.5834 24.2753 25.8084 24.1568C25.5951 24.3504 16.9118 30.9211 14.8084 32.0009C14.6896 32.0579 14.5634 32.0978 14.4334 32.1194C14.2217 32.1565 14.0066 32.1711 13.7918 32.1628C13.3427 32.122 12.9157 31.9495 12.5641 31.6669C12.2125 31.3843 11.952 31.0041 11.8151 30.5739L11.8184 30.5672ZM14.5384 33.0006C15.8549 32.4503 17.0818 31.7061 18.1784 30.7925C21.5834 28.456 28.2518 23.8346 28.4984 23.7061C28.3601 23.8346 23.6801 27.5013 19.9451 30.3519C17.5584 32.1744 15.5351 33.6314 15.4268 33.6898C15.1342 33.8498 14.8098 33.9425 14.477 33.9612C14.1442 33.9799 13.8114 33.924 13.5028 33.7977C13.1943 33.6715 12.9177 33.4779 12.6933 33.2312C12.4688 32.9845 12.302 32.6907 12.2051 32.3714C12.5253 32.6383 12.8991 32.8332 13.3011 32.9429C13.7031 33.0527 14.1239 33.0746 14.5351 33.0072L14.5384 33.0006ZM12.5584 34.1054C12.8809 34.3692 13.2558 34.5611 13.6581 34.6684C14.0604 34.7758 14.481 34.7961 14.8918 34.728C15.1807 34.6726 15.4609 34.5788 15.7251 34.4492C15.8918 34.3641 17.8668 32.8838 20.4034 31.0512C24.4284 28.1356 29.8034 24.2753 31.2801 23.2355C28.3684 25.6905 16.1318 35.2103 15.8751 35.3705C15.4735 35.624 14.9994 35.7373 14.5268 35.6926C14.08 35.65 13.6553 35.4778 13.3047 35.197C12.9542 34.9163 12.6931 34.5392 12.5534 34.1121L12.5584 34.1054ZM12.9118 35.8745C13.2348 36.1413 13.6116 36.3351 14.0163 36.4425C14.4211 36.5499 14.8442 36.5685 15.2568 36.4971C15.8844 36.3308 16.464 36.0186 16.9484 35.5858C17.3118 35.3171 31.3151 24.5707 33.7451 22.8182C31.9118 24.3303 26.1984 29.0685 21.9484 32.5633C19.2284 34.7931 17.0884 36.487 17.0234 36.5505C16.7557 36.848 16.4265 37.0836 16.0587 37.241C15.6908 37.3983 15.2932 37.4737 14.8934 37.4617C14.4445 37.4215 14.0172 37.2506 13.6641 36.97C13.3111 36.6895 13.0478 36.3115 12.9068 35.8829L12.9118 35.8745ZM17.3651 38.2979C17.1066 38.6048 16.7808 38.8477 16.413 39.0075C16.0452 39.1673 15.6455 39.2398 15.2451 39.2191C14.7963 39.1809 14.3691 39.0094 14.0181 38.7267C13.6672 38.4439 13.4085 38.0628 13.2751 37.632C13.8436 38.1067 14.5735 38.3428 15.3119 38.2909C16.0504 38.2389 16.7401 37.9029 17.2368 37.3532C17.3434 37.2564 19.5284 35.4656 22.3534 33.1725C27.7284 28.8198 35.5534 22.7098 35.9701 22.4311C32.7718 25.1715 17.5318 38.1527 17.3618 38.3029L17.3651 38.2979ZM37.5451 19.4303C37.5138 19.883 37.3453 20.3154 37.062 20.6697C36.7788 21.024 36.3944 21.2833 35.9601 21.413C36.1448 21.207 36.2996 20.9761 36.4201 20.727C36.7027 20.1413 36.7892 19.48 36.6668 18.8411C36.6041 18.5295 36.5034 18.2268 36.3668 17.9399C36.2988 17.7984 36.2203 17.6622 36.1318 17.5326C36.0468 17.4041 35.9501 17.2756 35.8634 17.1688C35.8634 17.1688 30.8534 10.5113 29.4084 8.51692C27.4384 5.81487 25.3518 3.02771 25.2018 2.8241C25.6301 3.24301 26.0268 3.75703 26.4334 4.17427C27.2668 5.04213 34.8151 14.7021 36.3034 16.5446L36.8601 17.2422C37.1231 17.538 37.3199 17.8868 37.4372 18.265C37.5545 18.6433 37.5896 19.0423 37.5401 19.4353L37.5451 19.4303ZM39.2118 19.2267C39.1658 19.675 38.9906 20.1003 38.7073 20.4506C38.4241 20.8009 38.0452 21.0611 37.6168 21.1994C37.8014 20.9934 37.9562 20.7625 38.0768 20.5134C38.3594 19.9277 38.4459 19.2663 38.3234 18.6275C38.2609 18.3159 38.1601 18.0132 38.0234 17.7263C37.9556 17.5847 37.877 17.4486 37.7884 17.319C37.7034 17.1905 37.6068 17.062 37.5201 16.9552L36.4918 15.6367L34.4468 12.9998C33.0868 11.2423 31.6851 9.51496 30.2801 7.77924C28.8751 6.04352 25.3551 2.02299 25.0351 1.72258C25.4734 2.0981 25.8801 2.51533 26.2984 2.92255C27.1434 3.74869 27.9468 4.60488 28.7601 5.47441C29.5734 6.34394 30.3451 7.23183 31.1268 8.12306C31.9084 9.01428 32.6784 9.91383 33.4384 10.8251C34.9584 12.6476 36.4384 14.4968 37.9384 16.346L38.4951 17.032C38.661 17.2388 38.8046 17.4625 38.9234 17.6995C39.1548 18.1752 39.2538 18.7044 39.2101 19.2316L39.2118 19.2267Z" fill="white" style="mix-blend-mode:overlay"/>
</svg>
