<svg width="25" height="24" viewBox="0 0 25 24" fill="none" xmlns="http://www.w3.org/2000/svg">
<path d="M12.4214 8C13.5214 8 14.4214 7.1 14.4214 6C14.4214 4.9 13.5214 4 12.4214 4C11.3214 4 10.4214 4.9 10.4214 6C10.4214 7.1 11.3214 8 12.4214 8ZM12.4214 10C11.3214 10 10.4214 10.9 10.4214 12C10.4214 13.1 11.3214 14 12.4214 14C13.5214 14 14.4214 13.1 14.4214 12C14.4214 10.9 13.5214 10 12.4214 10ZM12.4214 16C11.3214 16 10.4214 16.9 10.4214 18C10.4214 19.1 11.3214 20 12.4214 20C13.5214 20 14.4214 19.1 14.4214 18C14.4214 16.9 13.5214 16 12.4214 16Z" fill="black"/>
</svg>
