<svg width="38" height="38" viewBox="0 0 38 38" fill="none" xmlns="http://www.w3.org/2000/svg">
<circle cx="19" cy="19" r="18.5" fill="#D9D9D9" stroke="white"/>
<path d="M19.6281 14.1256C20.6148 14.1256 21.4143 14.9251 21.4143 15.9118C21.4143 16.8984 20.6148 17.6979 19.6281 17.6979C18.6415 17.6979 17.842 16.8984 17.842 15.9118C17.842 14.9251 18.6415 14.1256 19.6281 14.1256ZM19.6281 21.7806C22.1543 21.7806 24.8165 23.0224 24.8165 23.5667V24.5024H14.4398V23.5667C14.4398 23.0224 17.102 21.7806 19.6281 21.7806ZM19.6281 12.5096C17.7484 12.5096 16.2259 14.0321 16.2259 15.9118C16.2259 17.7915 17.7484 19.314 19.6281 19.314C21.5079 19.314 23.0303 17.7915 23.0303 15.9118C23.0303 14.0321 21.5079 12.5096 19.6281 12.5096ZM19.6281 20.1645C17.3572 20.1645 12.8237 21.3043 12.8237 23.5667V26.1184H26.4325V23.5667C26.4325 21.3043 21.8991 20.1645 19.6281 20.1645Z" fill="#3B3B3B"/>
</svg>
