<svg width="17" height="17" viewBox="0 0 17 17" fill="none" xmlns="http://www.w3.org/2000/svg">
<path d="M8.5 2.4C9.66 2.4 10.6 3.34 10.6 4.5C10.6 5.66 9.66 6.6 8.5 6.6C7.34 6.6 6.4 5.66 6.4 4.5C6.4 3.34 7.34 2.4 8.5 2.4ZM8.5 11.4C11.47 11.4 14.6 12.86 14.6 13.5V14.6H2.4V13.5C2.4 12.86 5.53 11.4 8.5 11.4ZM8.5 0.5C6.29 0.5 4.5 2.29 4.5 4.5C4.5 6.71 6.29 8.5 8.5 8.5C10.71 8.5 12.5 6.71 12.5 4.5C12.5 2.29 10.71 0.5 8.5 0.5ZM8.5 9.5C5.83 9.5 0.5 10.84 0.5 13.5V16.5H16.5V13.5C16.5 10.84 11.17 9.5 8.5 9.5Z" fill="white"/>
</svg>
